<svg width="60" height="60" viewBox="0 0 60 60" fill="none" xmlns="http://www.w3.org/2000/svg">
<rect x="0.5" y="0.5" width="59" height="59" rx="29.5" stroke="black"/>
<path fill-rule="evenodd" clip-rule="evenodd" d="M19.6026 35.0031L30 48L40.3975 35.0031C42.4058 32.4927 43.5 29.3735 43.5 26.1585V25.5C43.5 18.0442 37.4558 12 30 12C22.5442 12 16.5 18.0442 16.5 25.5V26.1585C16.5 29.3735 17.5942 32.4927 19.6026 35.0031ZM30 30C32.4853 30 34.5 27.9853 34.5 25.5C34.5 23.0147 32.4853 21 30 21C27.5147 21 25.5 23.0147 25.5 25.5C25.5 27.9853 27.5147 30 30 30Z" fill="black"/>
</svg>
